<?xml version="1.0" standalone="no"?>
<!DOCTYPE svg PUBLIC "-//W3C//DTD SVG 20010904//EN"
 "http://www.w3.org/TR/2001/REC-SVG-20010904/DTD/svg10.dtd">
<svg version="1.0" xmlns="http://www.w3.org/2000/svg"
 width="500.000000pt" height="500.000000pt" viewBox="0 0 500.000000 500.000000"
 preserveAspectRatio="xMidYMid meet">
<metadata>
Created by potrace 1.14, written by Peter Selinger 2001-2017
</metadata>
<g transform="translate(0.000000,500.000000) scale(0.100000,-0.100000)"
fill="#000000" stroke="none">
<path d="M3678 4493 c-43 -7 -243 -111 -353 -185 -123 -82 -232 -173 -265
-222 -14 -20 -30 -34 -37 -31 -31 11 -150 -171 -155 -239 -3 -36 -21 -15 -20
24 l1 30 -23 -28 c-12 -15 -58 -76 -102 -137 -205 -281 -312 -484 -317 -603
-1 -34 -9 -57 -22 -72 -34 -38 -29 -159 11 -247 8 -17 14 -37 14 -45 0 -8 5
-19 12 -26 7 -7 8 -12 2 -12 -15 0 -64 101 -85 173 -10 34 -18 53 -19 42 -1
-11 -3 -27 -5 -35 -3 -16 -14 -80 -20 -115 -1 -11 -6 -38 -9 -60 -4 -22 -15
-87 -24 -145 -15 -90 -16 -112 -5 -155 7 -27 15 -60 18 -73 2 -12 6 -32 9 -45
3 -12 -7 5 -22 38 l-29 60 -6 -50 c-14 -100 -20 -202 -20 -310 1 -151 7 -211
31 -272 12 -33 16 -51 8 -50 -6 1 -10 -3 -9 -9 1 -6 -5 -11 -13 -11 -11 0 -11
4 3 21 13 15 14 17 2 9 -12 -10 -18 -10 -29 0 -12 10 -12 9 -1 -5 12 -16 10
-18 -17 -18 -17 0 -33 -4 -37 -9 -3 -6 8 -8 27 -5 22 4 40 0 53 -10 19 -15 19
-16 1 -9 -11 4 -38 7 -60 7 -32 1 -47 -6 -74 -31 -19 -18 -32 -38 -29 -45 4
-9 6 -9 6 2 2 23 67 60 106 60 48 0 44 -16 -6 -24 -44 -7 -99 -54 -99 -85 0
-14 -2 -14 -10 -1 -17 24 -1 -39 22 -87 10 -22 26 -44 36 -48 12 -4 10 1 -7
19 -14 14 -20 30 -16 37 5 7 4 10 -3 5 -6 -3 -13 6 -17 24 -7 33 11 71 49 102
32 26 50 23 32 -4 -15 -23 -16 -53 -3 -63 4 -3 5 -2 2 2 -8 10 36 53 55 53 30
0 59 -29 54 -53 -3 -12 -6 -28 -6 -34 -1 -7 -7 -14 -15 -14 -7 -1 -19 -2 -25
-3 -7 -1 -21 2 -32 7 -13 6 -16 6 -12 -2 4 -6 3 -11 -3 -11 -6 0 -15 -9 -21
-20 -9 -17 -6 -25 18 -48 15 -15 27 -36 27 -48 -7 -85 -34 -150 -85 -201 -37
-37 -123 -82 -172 -90 -111 -17 -162 -80 -157 -195 1 -35 9 -83 16 -108 17
-59 73 -170 86 -170 5 0 6 -11 3 -24 -8 -32 9 -43 74 -51 90 -11 528 -13 620
-3 47 5 96 10 110 11 19 2 25 8 26 27 0 14 15 50 32 80 46 80 75 174 76 250 2
115 -30 153 -154 185 -161 41 -237 127 -254 288 -3 21 3 32 20 44 13 8 24 24
24 34 0 10 11 26 24 34 87 57 53 232 -47 236 l-32 2 35 7 c31 7 32 7 8 9 -16
0 -28 4 -28 7 0 9 53 77 80 102 23 22 24 23 3 12 -47 -22 -20 -1 73 60 196
128 264 235 359 566 25 87 50 167 55 176 14 25 12 32 -5 18 -10 -8 -6 8 10 48
32 78 124 376 118 382 -2 2 -15 -10 -29 -28 -14 -18 -47 -46 -72 -63 l-47 -32
52 51 c63 61 90 103 133 207 18 44 50 118 72 165 72 152 160 392 183 496 2 10
18 55 34 98 17 44 29 81 28 82 -1 2 -27 -15 -57 -37 l-55 -40 69 66 c49 46 80
88 108 142 45 87 96 165 157 238 22 27 41 53 41 57 0 8 -4 8 -52 1z m-741
-990 c-154 -298 -290 -647 -400 -1028 -30 -102 -151 -570 -163 -630 -18 -88
-31 -129 -41 -132 -7 -3 -5 25 9 84 29 133 104 428 148 585 21 77 36 146 33
154 -3 8 -1 14 5 14 8 0 30 48 37 80 7 33 107 317 125 355 5 11 25 61 45 110
45 112 191 415 200 415 3 0 4 -3 2 -7z m-499 -1830 c-27 -7 -21 -21 6 -16 26
5 76 -39 76 -69 0 -9 3 -25 7 -35 5 -14 1 -13 -20 6 -17 16 -24 28 -18 35 11
13 -87 16 -107 2 -7 -4 -16 -5 -19 -2 -4 3 -1 6 6 6 7 0 10 4 7 9 -3 4 3 16
14 26 23 21 27 44 5 25 -9 -8 -15 -8 -15 -2 0 13 18 21 50 20 16 0 19 -2 8 -5z
m-203 -70 c19 -9 35 -20 35 -24 0 -4 -12 -2 -26 5 -31 17 -60 10 -79 -17 -8
-12 -15 -17 -15 -11 0 11 38 64 45 64 3 0 20 -8 40 -17z m244 -29 c37 -31 40
-62 8 -92 -19 -18 -28 -20 -57 -12 -19 5 -47 8 -61 6 -25 -3 -26 -2 -17 42 11
63 23 73 85 81 6 0 25 -11 42 -25z"/>
<path d="M2480 1706 c0 -2 7 -7 16 -10 8 -3 12 -2 9 4 -6 10 -25 14 -25 6z"/>
</g>
</svg>
